<svg width="40" height="32" shape-rendering="crispEdges" xmlns="http://www.w3.org/2000/svg">
    <defs>
        <linearGradient id="lg" x1="9" x2="9" y1="2" y2="30" gradientUnits="userSpaceOnUse">
            <stop offset="0" stop-color="#ffd567" />
            <stop offset="1" stop-color="#b94a51" />
        </linearGradient>
    </defs>
    <path
        d="M2.512 27.512l1-1v-20l-1-2 4-2v3l4-3h1l5 6-1 1v18l-3 3v-19l1-1-4-5-3 2v19l1 1zm17-20l-3 3v13l2 4 4-2 1-3-3 1h-1zm7-3l-2 2 1 2 2-2zm-1 7l-2 2 1 1v12l-1 1h5l-1-1v-13zm6-4l-4 2 1 2v12l1 3 4 1 5-3v-5l-3-4-4 3v-2zm4 10l1 1v6l-1 1-4-1v-4z"
        fill="#022140" />
    <path
        d="M2 27l1-1V6L2 4l4-2v3l4-3h1l5 6-1 1v18l-3 3V11l1-1-4-5-3 2v19l1 1zM19 7l-3 3v13l2 4 4-2 1-3-3 1h-1zM26 4l-2 2 1 2 2-2zm-1 7l-2 2 1 1v12l-1 1h5l-1-1V13zM31 7l-4 2 1 2v12l1 3 4 1 5-3v-5l-3-4-4 3v-2zm4 10l1 1v6l-1 1-4-1v-4z"
        fill="url(#lg)" />
</svg>